<svg id="oakengine-logo" xmlns="http://www.w3.org/2000/svg" viewBox="0 0 557 557">
    <defs>
        <style>
            #oakengine-logo-1,
            #oakengine-logo-3,
            #oakengine-logo-5 {
                fill: #000;
            }
            #oakengine-logo-7 {
                fill: #4f4f4f;
            }
            #oakengine-logo-2,
            #oakengine-logo-4,
            #oakengine-logo-6,
            #oakengine-logo-8 {
                fill: #fff;
            }
        </style>
    </defs>
    <path id="oakengine-logo-1" d="M259.06.56c46.61-3.3,82.36,8.61,125.54,22.86,22.58,7.45,44.23,17.03,62.41,32.75,10.79,9.34,18.4,20.16,27.92,30.27,12.98,13.79,26.68,23.58,37.38,39.87,22.97,34.95,34.97,82.76,42.07,123.82,8.01,46.35-3.66,71.08-16.78,113.14-3.62,11.62-5.77,24.28-9.68,35.58-13.24,38.21-46.85,67.37-75.91,93.7-22.29,20.18-47.36,37.53-76.69,45.55-10.01,2.74-20.1,3.57-30,6.01-10.45,2.57-20.52,6.68-31.1,8.93-61.49,13.03-107.59-8.27-162.79-31.29-41.98-17.51-52.12-37.28-80.38-69.03-12.18-13.68-23.44-22.4-33.49-38.76-15.79-25.71-17.07-47.72-23.61-75.94-4.03-17.41-11.58-32.74-13.3-51.07-3.54-37.66,8.13-58.9,19.23-92.42,7.93-23.95,10.53-43.94,24.28-66.19,15.29-24.76,62.28-72.53,86.98-87.56,24.59-14.97,46.26-19.25,73.2-26.9,19.3-5.48,33.88-11.83,54.72-13.3ZM262.05,23.74c-22.97,1.73-53.96,11.68-76.45,18.58-33.55,10.29-52.99,21.69-77.15,47.1-17.78,18.7-42.57,42.27-52.76,65.67-6.47,14.87-8.75,30.33-13.85,45.48-8.63,25.64-19.56,44.46-19.3,73.32.19,20.46,8.24,35.81,12.74,54.68,6.01,25.25,6.26,47.25,19.85,70.67,9.69,16.7,21.72,25.6,33.89,39.37,23.39,26.45,32.5,44.75,67.03,60.33,18.68,8.43,44.35,18.45,63.75,25.35,47.7,16.97,72.77,9.55,119.14-1.74,32.53-7.92,50.41-9.75,78.82-30.3,20.32-14.7,60.72-52.46,74.58-72.87,13.5-19.87,14.43-32.29,21.29-54.09,13.24-42.11,26.07-67.77,17.78-114.15-6.74-37.67-19.12-90.29-43.96-119.89-8.26-9.84-19.63-18.03-28.5-27.67-31.07-33.81-39.56-44.31-85.09-59.24-37.61-12.34-71.45-23.64-111.81-20.59Z"/>
    <path id="oakengine-logo-2" d="M262.05,23.74c40.36-3.05,74.19,8.25,111.81,20.59,45.52,14.94,54.02,25.43,85.09,59.24,8.86,9.65,20.24,17.83,28.5,27.67,24.84,29.61,37.23,82.22,43.96,119.89,8.29,46.37-4.53,72.04-17.78,114.15-6.86,21.8-7.79,34.23-21.29,54.09-13.87,20.41-54.27,58.17-74.58,72.87-28.41,20.56-46.29,22.39-78.82,30.3-46.38,11.29-71.44,18.71-119.14,1.74-19.4-6.9-45.07-16.92-63.75-25.35-34.54-15.59-43.64-33.88-67.03-60.33-12.17-13.76-24.2-22.67-33.89-39.37-13.59-23.41-13.83-45.42-19.85-70.67-4.5-18.87-12.55-34.22-12.74-54.68-.27-28.86,10.67-47.68,19.3-73.32,5.1-15.15,7.38-30.61,13.85-45.48,10.19-23.4,34.98-46.97,52.76-65.67,24.16-25.41,43.61-36.81,77.15-47.1,22.49-6.9,53.48-16.85,76.45-18.58ZM265.05,48.93c-33.21,2.45-97.42,23.46-122.63,45.54-9.22,8.07-18.48,19.71-27.42,28.76-16.1,16.28-33.81,28.68-41.74,51.6-3.27,9.44-3.97,19.18-6.69,28.52-3.62,12.46-10.97,23.43-14.73,36.53-8.87,31.02-4.48,39.08,1.59,68.37,5.91,28.53,6.79,52.25,21.58,79,11.89,21.49,34.05,35.95,50.47,53.87,8.13,8.87,14.65,19.44,23.93,27.25,22.39,18.83,97.14,42.74,126.22,42.72,28.52-.02,69.47-14.67,97.23-23.82,24.71-8.14,42.24-21.32,59.66-40.57,4.21-4.65,7.98-11.01,12.45-15.66,23.46-24.41,37.46-28.64,46.88-65.55,4.78-18.73,10.84-42.83,13.76-61.69,4.69-30.24.2-61.11-4.99-91.12-5.2-29.99-22.31-42.98-38.47-65.98-21.73-30.92-23.67-41.59-59.74-59.63-45.21-22.61-85.42-41.97-137.37-38.14Z"/>
    <path id="oakengine-logo-3" d="M265.05,48.93c51.95-3.83,92.15,15.53,137.37,38.14,36.07,18.04,38.01,28.71,59.74,59.63,16.16,23,33.27,35.99,38.47,65.98,5.2,30.01,9.68,60.88,4.99,91.12-2.92,18.86-8.98,42.96-13.76,61.69-9.42,36.91-23.42,41.14-46.88,65.55-4.47,4.65-8.24,11.01-12.45,15.66-17.43,19.24-34.95,32.43-59.66,40.57-27.77,9.14-68.72,23.8-97.23,23.82-29.08.02-103.83-23.89-126.22-42.72-9.28-7.81-15.8-18.38-23.93-27.25-16.42-17.92-38.59-32.38-50.47-53.87-14.79-26.75-15.67-50.47-21.58-79-6.06-29.28-10.46-37.35-1.59-68.37,3.75-13.11,11.1-24.07,14.73-36.53,2.71-9.34,3.42-19.08,6.69-28.52,7.93-22.92,25.64-35.32,41.74-51.6,8.94-9.04,18.2-20.68,27.42-28.76,25.21-22.08,89.42-43.09,122.63-45.54ZM270.04,61.02c-30.31,2.04-94.34,20.89-117.64,40.5-18.58,23.83-59.52,48.68-68.92,77.57-3.4,10.45-3.91,21.94-7.69,32.55-7.15,20.08-16.51,31.9-18.12,55.28-1.12,16.38,4.83,27.32,7.59,42.47,4.31,23.61,6.16,45.15,17.07,67.42,10.93,22.3,31.54,34.22,47.62,51.71,19.8,21.53,22.18,32.89,51.73,45.54,42.99,18.41,86,32.23,132.49,19.47,19.41-5.33,46.15-13.22,64.68-20.38,27.81-10.76,38.34-28.97,57.12-49.17,19.7-21.18,34.47-25.38,43.68-56.69,5.6-19.03,11.93-46.91,14.97-66.52,4.38-28.26-.12-57.93-5-86.07-5-28.84-24.34-42.03-39.46-63.97-21.97-31.88-21.86-37.83-58.74-55.6-39.24-18.91-76.75-37.11-121.39-34.11Z"/>
    <path id="oakengine-logo-4" d="M270.04,61.02c44.64-3,82.16,15.2,121.39,34.11,36.88,17.77,36.78,23.72,58.74,55.6,15.12,21.94,34.47,35.13,39.46,63.97,4.88,28.15,9.38,57.81,5,86.07-3.04,19.61-9.38,47.49-14.97,66.52-9.21,31.31-23.98,35.51-43.68,56.69-18.79,20.2-29.32,38.42-57.12,49.17-18.53,7.17-45.27,15.06-64.68,20.38-46.49,12.76-89.5-1.05-132.49-19.47-29.55-12.66-31.94-24.01-51.73-45.54-16.08-17.49-36.69-29.41-47.62-51.71-10.91-22.27-12.76-43.81-17.07-67.42-2.76-15.14-8.71-26.09-7.59-42.47,1.6-23.38,10.97-35.21,18.12-55.28,3.78-10.61,4.28-22.1,7.69-32.55,9.4-28.89,50.34-53.75,68.92-77.57,23.3-19.61,87.33-38.47,117.64-40.5ZM134.86,404.94c28.65,29.16,42.06,46.13,82.7,59.14,77.02,24.64,154.04,4.44,205.45-58.24,48.76-59.46,63.04-121.67,34.73-195.22-41.79-108.55-168.93-154.01-271.38-100.04-42.79,22.54-84.84,76.11-96.56,123.25-12.81,51.51-6.57,84.39,14.21,132.21,7.73,17.78,17.93,25.74,30.86,38.89Z"/>
    <path id="oakengine-logo-5" d="M134.86,404.94c-12.93-13.16-23.13-21.12-30.86-38.89-20.78-47.83-27.02-80.7-14.21-132.21,11.72-47.15,53.77-100.71,96.56-123.25,102.46-53.98,229.59-8.52,271.38,100.04,28.31,73.55,14.04,135.77-34.73,195.22-51.41,62.68-128.43,82.88-205.45,58.24-40.64-13-54.05-29.97-82.7-59.14Z"/>
    <path id="oakengine-logo-6" d="M266.05,101.33c-89.47,6.77-162.55,77.39-171.54,167.5-3.32,33.21,13.68,91.82,36.54,116.28,19.29,20.63,45.49,49.18,70.94,60.42,75.11,33.19,158.25,18.03,211.03-45.73,49.44-59.73,61.5-122.14,29.45-194.94-29.51-67.01-104.2-108.99-176.42-103.53Z"/>
    <path id="oakengine-logo-7" d="M420.49,225.81c1.9,5.16.3,10.9-3.79,14.58l-25.66,23.35c.65,4.92,1.01,9.96,1.01,15.05s-.36,10.13-1.01,15.05l25.66,23.35c4.09,3.67,5.69,9.42,3.79,14.58-2.61,7.05-5.75,13.81-9.36,20.33l-2.79,4.8c-3.91,6.52-8.3,12.68-13.1,18.49-3.5,4.27-9.3,5.69-14.52,4.03l-33.01-10.49c-7.94,6.1-16.71,11.2-26.08,15.05l-7.41,33.84c-1.19,5.39-5.33,9.66-10.79,10.55-8.18,1.36-16.59,2.07-25.19,2.07s-17.01-.71-25.19-2.07c-5.45-.89-9.6-5.16-10.79-10.55l-7.41-33.84c-9.36-3.85-18.14-8.95-26.08-15.05l-32.95,10.55c-5.22,1.66-11.02.18-14.52-4.03-4.8-5.81-9.19-11.97-13.1-18.49l-2.79-4.8c-3.62-6.52-6.76-13.28-9.36-20.33-1.9-5.16-.3-10.9,3.79-14.58l25.66-23.35c-.65-4.98-1.01-10.02-1.01-15.11s.36-10.13,1.01-15.05l-25.66-23.35c-4.09-3.67-5.69-9.42-3.79-14.58,2.61-7.05,5.75-13.81,9.36-20.33l2.79-4.8c3.91-6.52,8.3-12.68,13.1-18.49,3.5-4.27,9.3-5.69,14.52-4.03l33.01,10.49c7.94-6.1,16.71-11.2,26.08-15.05l7.41-33.84c1.19-5.39,5.33-9.66,10.79-10.55,8.18-1.42,16.59-2.13,25.19-2.13s17.01.71,25.19,2.07c5.45.89,9.6,5.16,10.79,10.55l7.41,33.84c9.36,3.85,18.14,8.95,26.08,15.05l33.01-10.49c5.22-1.66,11.02-.18,14.52,4.03,4.8,5.81,9.19,11.97,13.1,18.49l2.79,4.8c3.62,6.52,6.76,13.28,9.36,20.33l-.06.06Z"/>
    <circle id="oakengine-logo-8" cx="278.32" cy="278.79" r="47.41"/>
</svg>